# xmcd
#
# Track frame offsets:
# 182
# 13725
# 27360
# 39955
# 55410
# 70390
# 81415
# 94700
# 110915
# 122315
# 137625
# 151500
# 166315
# 176980
# 189297
# 200287
# 212485
# 225752
# 238010
# 253722
#
# Disc length: 3571 seconds
#
#
# Revision: 0
# Processed by: cddbd v1.5PL3 Copyright (c) Steve Scherf et al.
# Submitted via: FreeRIP 2.53 
#
DISCID=040df114
DTITLE=Rui Biriva - Sucessos de Ouro
DYEAR=1990
DGENRE=Folk
TTITLE0=Tchê Loco
TTITLE1=Pé na estrada
TTITLE2=Ze desastre
TTITLE3=Danca da alegria
TTITLE4=Guria
TTITLE5=Tche Ricardao
TTITLE6=Surungo
TTITLE7=Bolicho do Tio Candinho
TTITLE8=Festere
TTITLE9=Baile da Fronteira
TTITLE10=Amigo
TTITLE11=Free xote
TTITLE12=Vaneira de mil amores
TTITLE13=Mensagem da saudade
TTITLE14=Encabichando
TTITLE15=Bate coxa
TTITLE16=Mula preta
TTITLE17=Recado para Filomena
TTITLE18=Prenda linda
TTITLE19=Vai embora tristeza
EXTD=
EXTT0=
EXTT1=
EXTT2=
EXTT3=
EXTT4=
EXTT5=
EXTT6=
EXTT7=
EXTT8=
EXTT9=
EXTT10=
EXTT11=
EXTT12=
EXTT13=
EXTT14=
EXTT15=
EXTT16=
EXTT17=
EXTT18=
EXTT19=
PLAYORDER=
